<?xml version="1.0" encoding="UTF-8"?>
<!DOCTYPE svg
PUBLIC "-//W3C//DTD SVG 1.1//EN"
       "http://www.w3.org/Graphics/SVG/1.1/DTD/svg11.dtd">
<svg viewBox="21 18 1057 642" width="1036px" height="624px" xmlns="http://www.w3.org/2000/svg" version="1.1">
   <line x1="570" y1="498" x2="560" y2="498" style="stroke:#cb0;stroke-width:1;"/>
   <line x1="425" y1="297" x2="415" y2="297" style="stroke:#cb0;stroke-width:1;"/>
   <line x1="560" y1="498" x2="425" y2="297" style="stroke:#cb0;stroke-width:1;"/>
   <line x1="562.5" y1="498" x2="566.03553390593" y2="501.53553390593" style="stroke:#cb0;stroke-width:2;"/>
   <line x1="562.5" y1="498" x2="566.03553390593" y2="494.46446609407" style="stroke:#cb0;stroke-width:2;"/>
   <line x1="420" y1="297" x2="423.53553390593" y2="300.53553390593" style="stroke:#cb0;stroke-width:2;"/>
   <line x1="420" y1="297" x2="423.53553390593" y2="293.46446609407" style="stroke:#cb0;stroke-width:2;"/>
   <line x1="570" y1="478" x2="560" y2="478" style="stroke:#cb0;stroke-width:1;"/>
   <line x1="557" y1="80" x2="567" y2="80" style="stroke:#cb0;stroke-width:1;"/>
   <line x1="560" y1="478" x2="557" y2="80" style="stroke:#cb0;stroke-width:1;"/>
   <line x1="562.5" y1="478" x2="566.03553390593" y2="481.53553390593" style="stroke:#cb0;stroke-width:2;"/>
   <line x1="562.5" y1="478" x2="566.03553390593" y2="474.46446609407" style="stroke:#cb0;stroke-width:2;"/>
   <line x1="562" y1="80" x2="558.46446609407" y2="83.535533905933" style="stroke:#cb0;stroke-width:2;"/>
   <line x1="562" y1="80" x2="558.46446609407" y2="76.464466094067" style="stroke:#cb0;stroke-width:2;"/>
   <line x1="865" y1="303" x2="855" y2="303" style="stroke:#b0b;stroke-width:1;"/>
   <line x1="724" y1="80" x2="714" y2="80" style="stroke:#b0b;stroke-width:1;"/>
   <line x1="855" y1="303" x2="724" y2="80" style="stroke:#b0b;stroke-width:1;"/>
   <line x1="857.5" y1="303" x2="861.03553390593" y2="306.53553390593" style="stroke:#b0b;stroke-width:2;"/>
   <line x1="857.5" y1="303" x2="861.03553390593" y2="299.46446609407" style="stroke:#b0b;stroke-width:2;"/>
   <line x1="719" y1="80" x2="722.53553390593" y2="83.535533905933" style="stroke:#b0b;stroke-width:2;"/>
   <line x1="719" y1="80" x2="722.53553390593" y2="76.464466094067" style="stroke:#b0b;stroke-width:2;"/>
   <line x1="865" y1="283" x2="855" y2="283" style="stroke:#b0b;stroke-width:1;"/>
   <line x1="724" y1="80" x2="714" y2="80" style="stroke:#b0b;stroke-width:1;"/>
   <line x1="855" y1="283" x2="724" y2="80" style="stroke:#b0b;stroke-width:1;"/>
   <line x1="857.5" y1="283" x2="861.03553390593" y2="286.53553390593" style="stroke:#b0b;stroke-width:2;"/>
   <line x1="857.5" y1="283" x2="861.03553390593" y2="279.46446609407" style="stroke:#b0b;stroke-width:2;"/>
   <line x1="719" y1="80" x2="722.53553390593" y2="83.535533905933" style="stroke:#b0b;stroke-width:2;"/>
   <line x1="719" y1="80" x2="722.53553390593" y2="76.464466094067" style="stroke:#b0b;stroke-width:2;"/>
   <line x1="876" y1="417" x2="866" y2="417" style="stroke:#333;stroke-width:1;"/>
   <line x1="724" y1="80" x2="714" y2="80" style="stroke:#333;stroke-width:1;"/>
   <line x1="866" y1="417" x2="724" y2="80" style="stroke:#333;stroke-width:1;"/>
   <line x1="868.5" y1="417" x2="872.03553390593" y2="420.53553390593" style="stroke:#333;stroke-width:2;"/>
   <line x1="868.5" y1="417" x2="872.03553390593" y2="413.46446609407" style="stroke:#333;stroke-width:2;"/>
   <line x1="719" y1="80" x2="722.53553390593" y2="83.535533905933" style="stroke:#333;stroke-width:2;"/>
   <line x1="719" y1="80" x2="722.53553390593" y2="76.464466094067" style="stroke:#333;stroke-width:2;"/>
   <line x1="861" y1="159" x2="851" y2="159" style="stroke:#c00;stroke-width:1;"/>
   <line x1="724" y1="80" x2="714" y2="80" style="stroke:#c00;stroke-width:1;"/>
   <line x1="851" y1="159" x2="724" y2="80" style="stroke:#c00;stroke-width:1;"/>
   <line x1="853.5" y1="159" x2="857.03553390593" y2="162.53553390593" style="stroke:#c00;stroke-width:2;"/>
   <line x1="853.5" y1="159" x2="857.03553390593" y2="155.46446609407" style="stroke:#c00;stroke-width:2;"/>
   <line x1="719" y1="80" x2="722.53553390593" y2="83.535533905933" style="stroke:#c00;stroke-width:2;"/>
   <line x1="719" y1="80" x2="722.53553390593" y2="76.464466094067" style="stroke:#c00;stroke-width:2;"/>
   <line x1="861" y1="139" x2="851" y2="139" style="stroke:#333;stroke-width:1;"/>
   <line x1="724" y1="80" x2="714" y2="80" style="stroke:#333;stroke-width:1;"/>
   <line x1="851" y1="139" x2="724" y2="80" style="stroke:#333;stroke-width:1;"/>
   <line x1="853.5" y1="139" x2="857.03553390593" y2="142.53553390593" style="stroke:#333;stroke-width:2;"/>
   <line x1="853.5" y1="139" x2="857.03553390593" y2="135.46446609407" style="stroke:#333;stroke-width:2;"/>
   <line x1="719" y1="80" x2="722.53553390593" y2="83.535533905933" style="stroke:#333;stroke-width:2;"/>
   <line x1="719" y1="80" x2="722.53553390593" y2="76.464466094067" style="stroke:#333;stroke-width:2;"/>
   <line x1="268" y1="417" x2="258" y2="417" style="stroke:#333;stroke-width:1;"/>
   <line x1="201" y1="477" x2="191" y2="477" style="stroke:#333;stroke-width:1;"/>
   <line x1="258" y1="417" x2="201" y2="477" style="stroke:#333;stroke-width:1;"/>
   <line x1="260.5" y1="417" x2="264.03553390593" y2="420.53553390593" style="stroke:#333;stroke-width:2;"/>
   <line x1="260.5" y1="417" x2="264.03553390593" y2="413.46446609407" style="stroke:#333;stroke-width:2;"/>
   <line x1="196" y1="477" x2="199.53553390593" y2="480.53553390593" style="stroke:#333;stroke-width:2;"/>
   <line x1="196" y1="477" x2="199.53553390593" y2="473.46446609407" style="stroke:#333;stroke-width:2;"/>
   <line x1="415" y1="377" x2="425" y2="377" style="stroke:#0b0;stroke-width:1;"/>
   <line x1="557" y1="80" x2="567" y2="80" style="stroke:#0b0;stroke-width:1;"/>
   <line x1="425" y1="377" x2="557" y2="80" style="stroke:#0b0;stroke-width:1;"/>
   <line x1="422.5" y1="377" x2="418.96446609407" y2="380.53553390593" style="stroke:#0b0;stroke-width:2;"/>
   <line x1="422.5" y1="377" x2="418.96446609407" y2="373.46446609407" style="stroke:#0b0;stroke-width:2;"/>
   <line x1="562" y1="80" x2="558.46446609407" y2="83.535533905933" style="stroke:#0b0;stroke-width:2;"/>
   <line x1="562" y1="80" x2="558.46446609407" y2="76.464466094067" style="stroke:#0b0;stroke-width:2;"/>
   <line x1="241" y1="83" x2="231" y2="83" style="stroke:#b0b;stroke-width:1;"/>
   <line x1="258" y1="297" x2="268" y2="297" style="stroke:#b0b;stroke-width:1;"/>
   <line x1="231" y1="83" x2="258" y2="297" style="stroke:#b0b;stroke-width:1;"/>
   <line x1="233.5" y1="83" x2="237.03553390593" y2="86.535533905933" style="stroke:#b0b;stroke-width:2;"/>
   <line x1="233.5" y1="83" x2="237.03553390593" y2="79.464466094067" style="stroke:#b0b;stroke-width:2;"/>
   <line x1="263" y1="297" x2="259.46446609407" y2="300.53553390593" style="stroke:#b0b;stroke-width:2;"/>
   <line x1="263" y1="297" x2="259.46446609407" y2="293.46446609407" style="stroke:#b0b;stroke-width:2;"/>
   <line x1="388" y1="63" x2="398" y2="63" style="stroke:#333;stroke-width:1;"/>
   <line x1="557" y1="80" x2="567" y2="80" style="stroke:#333;stroke-width:1;"/>
   <line x1="398" y1="63" x2="557" y2="80" style="stroke:#333;stroke-width:1;"/>
   <line x1="395.5" y1="63" x2="391.96446609407" y2="66.535533905933" style="stroke:#333;stroke-width:2;"/>
   <line x1="395.5" y1="63" x2="391.96446609407" y2="59.464466094067" style="stroke:#333;stroke-width:2;"/>
   <line x1="562" y1="80" x2="558.46446609407" y2="83.535533905933" style="stroke:#333;stroke-width:2;"/>
   <line x1="562" y1="80" x2="558.46446609407" y2="76.464466094067" style="stroke:#333;stroke-width:2;"/>
   <line x1="714" y1="220" x2="724" y2="220" style="stroke:#bbb;stroke-width:1;"/>
   <line x1="885" y1="558" x2="895" y2="558" style="stroke:#bbb;stroke-width:1;"/>
   <line x1="724" y1="220" x2="885" y2="558" style="stroke:#bbb;stroke-width:1;"/>
   <line x1="721.5" y1="220" x2="717.96446609407" y2="223.53553390593" style="stroke:#bbb;stroke-width:2;"/>
   <line x1="721.5" y1="220" x2="717.96446609407" y2="216.46446609407" style="stroke:#bbb;stroke-width:2;"/>
   <line x1="890" y1="558" x2="886.46446609407" y2="561.53553390593" style="stroke:#bbb;stroke-width:2;"/>
   <line x1="890" y1="558" x2="886.46446609407" y2="554.46446609407" style="stroke:#bbb;stroke-width:2;"/>
   <line x1="183" y1="204" x2="193" y2="204" style="stroke:#0bf;stroke-width:1;"/>
   <line x1="258" y1="297" x2="268" y2="297" style="stroke:#0bf;stroke-width:1;"/>
   <line x1="193" y1="204" x2="258" y2="297" style="stroke:#0bf;stroke-width:1;"/>
   <line x1="190.5" y1="204" x2="186.96446609407" y2="207.53553390593" style="stroke:#0bf;stroke-width:2;"/>
   <line x1="190.5" y1="204" x2="186.96446609407" y2="200.46446609407" style="stroke:#0bf;stroke-width:2;"/>
   <line x1="263" y1="297" x2="259.46446609407" y2="300.53553390593" style="stroke:#0bf;stroke-width:2;"/>
   <line x1="263" y1="297" x2="259.46446609407" y2="293.46446609407" style="stroke:#0bf;stroke-width:2;"/>
   <line x1="183" y1="264" x2="193" y2="264" style="stroke:#0b0;stroke-width:1;"/>
   <line x1="557" y1="80" x2="567" y2="80" style="stroke:#0b0;stroke-width:1;"/>
   <line x1="193" y1="264" x2="557" y2="80" style="stroke:#0b0;stroke-width:1;"/>
   <line x1="190.5" y1="264" x2="186.96446609407" y2="267.53553390593" style="stroke:#0b0;stroke-width:2;"/>
   <line x1="190.5" y1="264" x2="186.96446609407" y2="260.46446609407" style="stroke:#0b0;stroke-width:2;"/>
   <line x1="562" y1="80" x2="558.46446609407" y2="83.535533905933" style="stroke:#0b0;stroke-width:2;"/>
   <line x1="562" y1="80" x2="558.46446609407" y2="76.464466094067" style="stroke:#0b0;stroke-width:2;"/>
   <rect width="147" height="20" x="570" y="428" style="fill:#007;stroke:black;"/>
   <text width="147" height="20" x="575" y="442" style="fill:#fff;" font-family="Arial" font-size="16px"> aktiviteler</text>
   <rect width="147" height="20" x="570" y="448" style="fill:#aea;stroke:black;"/>
   <text width="147" height="20" x="575" y="462" style="fill:black;" font-family="Arial" font-size="16px">aktivite_id</text>
   <rect width="147" height="20" x="570" y="468" style="fill:none;stroke:black;"/>
   <text width="147" height="20" x="575" y="482" style="fill:black;" font-family="Arial" font-size="16px">uye_id</text>
   <rect width="147" height="20" x="570" y="488" style="fill:none;stroke:black;"/>
   <text width="147" height="20" x="575" y="502" style="fill:black;" font-family="Arial" font-size="16px">not_id</text>
   <rect width="147" height="20" x="570" y="508" style="fill:none;stroke:black;"/>
   <text width="147" height="20" x="575" y="522" style="fill:black;" font-family="Arial" font-size="16px">icerik</text>
   <rect width="147" height="20" x="570" y="528" style="fill:none;stroke:black;"/>
   <text width="147" height="20" x="575" y="542" style="fill:black;" font-family="Arial" font-size="16px">oldugu_tarihi</text>
   <rect width="147" height="20" x="865" y="253" style="fill:#007;stroke:black;"/>
   <text width="147" height="20" x="870" y="267" style="fill:#fff;" font-family="Arial" font-size="16px"> arkadaslar</text>
   <rect width="147" height="20" x="865" y="273" style="fill:none;stroke:black;"/>
   <text width="147" height="20" x="870" y="287" style="fill:black;" font-family="Arial" font-size="16px">uye_id</text>
   <rect width="147" height="20" x="865" y="293" style="fill:none;stroke:black;"/>
   <text width="147" height="20" x="870" y="307" style="fill:black;" font-family="Arial" font-size="16px">arkadas_id</text>
   <rect width="147" height="20" x="865" y="313" style="fill:none;stroke:black;"/>
   <text width="147" height="20" x="870" y="327" style="fill:black;" font-family="Arial" font-size="16px">arkadas_olma_tarihi</text>
   <rect width="147" height="20" x="876" y="367" style="fill:#007;stroke:black;"/>
   <text width="147" height="20" x="881" y="381" style="fill:#fff;" font-family="Arial" font-size="16px"> bildirimler</text>
   <rect width="147" height="20" x="876" y="387" style="fill:#aea;stroke:black;"/>
   <text width="147" height="20" x="881" y="401" style="fill:black;" font-family="Arial" font-size="16px">bil_id</text>
   <rect width="147" height="20" x="876" y="407" style="fill:none;stroke:black;"/>
   <text width="147" height="20" x="881" y="421" style="fill:black;" font-family="Arial" font-size="16px">bil_sahibi</text>
   <rect width="147" height="20" x="876" y="427" style="fill:none;stroke:black;"/>
   <text width="147" height="20" x="881" y="441" style="fill:black;" font-family="Arial" font-size="16px">bil_icerigi</text>
   <rect width="147" height="20" x="876" y="447" style="fill:none;stroke:black;"/>
   <text width="147" height="20" x="881" y="461" style="fill:black;" font-family="Arial" font-size="16px">bil_tarihi</text>
   <rect width="147" height="20" x="44" y="447" style="fill:#007;stroke:black;"/>
   <text width="147" height="20" x="49" y="461" style="fill:#fff;" font-family="Arial" font-size="16px"> dersler</text>
   <rect width="147" height="20" x="44" y="467" style="fill:#aea;stroke:black;"/>
   <text width="147" height="20" x="49" y="481" style="fill:black;" font-family="Arial" font-size="16px">ders_id</text>
   <rect width="147" height="20" x="44" y="487" style="fill:none;stroke:black;"/>
   <text width="147" height="20" x="49" y="501" style="fill:black;" font-family="Arial" font-size="16px">ders_adi</text>
   <rect width="147" height="20" x="44" y="507" style="fill:none;stroke:black;"/>
   <text width="147" height="20" x="49" y="521" style="fill:black;" font-family="Arial" font-size="16px">ders_icerigi</text>
   <rect width="147" height="20" x="44" y="527" style="fill:none;stroke:black;"/>
   <text width="147" height="20" x="49" y="541" style="fill:black;" font-family="Arial" font-size="16px">ders_yariyili</text>
   <rect width="147" height="20" x="44" y="547" style="fill:none;stroke:black;"/>
   <text width="147" height="20" x="49" y="561" style="fill:black;" font-family="Arial" font-size="16px">teorik</text>
   <rect width="147" height="20" x="44" y="567" style="fill:none;stroke:black;"/>
   <text width="147" height="20" x="49" y="581" style="fill:black;" font-family="Arial" font-size="16px">uygulama</text>
   <rect width="147" height="20" x="44" y="587" style="fill:none;stroke:black;"/>
   <text width="147" height="20" x="49" y="601" style="fill:black;" font-family="Arial" font-size="16px">ders_kredisi</text>
   <rect width="147" height="20" x="44" y="607" style="fill:none;stroke:black;"/>
   <text width="147" height="20" x="49" y="621" style="fill:black;" font-family="Arial" font-size="16px">ders_akts</text>
   <rect width="147" height="20" x="861" y="89" style="fill:#007;stroke:black;"/>
   <text width="147" height="20" x="866" y="103" style="fill:#fff;" font-family="Arial" font-size="16px"> mesajlar</text>
   <rect width="147" height="20" x="861" y="109" style="fill:#aea;stroke:black;"/>
   <text width="147" height="20" x="866" y="123" style="fill:black;" font-family="Arial" font-size="16px">measaj_id</text>
   <rect width="147" height="20" x="861" y="129" style="fill:none;stroke:black;"/>
   <text width="147" height="20" x="866" y="143" style="fill:black;" font-family="Arial" font-size="16px">gonderen_id</text>
   <rect width="147" height="20" x="861" y="149" style="fill:none;stroke:black;"/>
   <text width="147" height="20" x="866" y="163" style="fill:black;" font-family="Arial" font-size="16px">alici_id</text>
   <rect width="147" height="20" x="861" y="169" style="fill:none;stroke:black;"/>
   <text width="147" height="20" x="866" y="183" style="fill:black;" font-family="Arial" font-size="16px">masaj_tarihi</text>
   <rect width="147" height="20" x="861" y="189" style="fill:none;stroke:black;"/>
   <text width="147" height="20" x="866" y="203" style="fill:black;" font-family="Arial" font-size="16px">mesaj_metni</text>
   <rect width="147" height="20" x="268" y="267" style="fill:#007;stroke:black;"/>
   <text width="147" height="20" x="273" y="281" style="fill:#fff;" font-family="Arial" font-size="16px"> notlar</text>
   <rect width="147" height="20" x="268" y="287" style="fill:#aea;stroke:black;"/>
   <text width="147" height="20" x="273" y="301" style="fill:black;" font-family="Arial" font-size="16px">not_id</text>
   <rect width="147" height="20" x="268" y="307" style="fill:none;stroke:black;"/>
   <text width="147" height="20" x="273" y="321" style="fill:black;" font-family="Arial" font-size="16px">not_basligi</text>
   <rect width="147" height="20" x="268" y="327" style="fill:none;stroke:black;"/>
   <text width="147" height="20" x="273" y="341" style="fill:black;" font-family="Arial" font-size="16px">not_aciklamasi</text>
   <rect width="147" height="20" x="268" y="347" style="fill:none;stroke:black;"/>
   <text width="147" height="20" x="273" y="361" style="fill:black;" font-family="Arial" font-size="16px">eklendigi_tarih</text>
   <rect width="147" height="20" x="268" y="367" style="fill:none;stroke:black;"/>
   <text width="147" height="20" x="273" y="381" style="fill:black;" font-family="Arial" font-size="16px">uye_id</text>
   <rect width="147" height="20" x="268" y="387" style="fill:none;stroke:black;"/>
   <text width="147" height="20" x="273" y="401" style="fill:black;" font-family="Arial" font-size="16px">not_durumu</text>
   <rect width="147" height="20" x="268" y="407" style="fill:none;stroke:black;"/>
   <text width="147" height="20" x="273" y="421" style="fill:black;" font-family="Arial" font-size="16px">ders_id</text>
   <rect width="147" height="20" x="268" y="427" style="fill:none;stroke:black;"/>
   <text width="147" height="20" x="273" y="441" style="fill:black;" font-family="Arial" font-size="16px">not_dosyasi</text>
   <rect width="147" height="20" x="268" y="447" style="fill:none;stroke:black;"/>
   <text width="147" height="20" x="273" y="461" style="fill:black;" font-family="Arial" font-size="16px">begen_sayisi</text>
   <rect width="147" height="20" x="241" y="33" style="fill:#007;stroke:black;"/>
   <text width="147" height="20" x="246" y="47" style="fill:#fff;" font-family="Arial" font-size="16px"> ortak_notlar</text>
   <rect width="147" height="20" x="241" y="53" style="fill:none;stroke:black;"/>
   <text width="147" height="20" x="246" y="67" style="fill:black;" font-family="Arial" font-size="16px">uye_id</text>
   <rect width="147" height="20" x="241" y="73" style="fill:none;stroke:black;"/>
   <text width="147" height="20" x="246" y="87" style="fill:black;" font-family="Arial" font-size="16px">not_id</text>
   <rect width="147" height="20" x="241" y="93" style="fill:none;stroke:black;"/>
   <text width="147" height="20" x="246" y="107" style="fill:black;" font-family="Arial" font-size="16px">tarih</text>
   <rect width="147" height="20" x="895" y="528" style="fill:#007;stroke:black;"/>
   <text width="147" height="20" x="900" y="542" style="fill:#fff;" font-family="Arial" font-size="16px"> rollar</text>
   <rect width="147" height="20" x="895" y="548" style="fill:#aea;stroke:black;"/>
   <text width="147" height="20" x="900" y="562" style="fill:black;" font-family="Arial" font-size="16px">rol_id</text>
   <rect width="147" height="20" x="895" y="568" style="fill:none;stroke:black;"/>
   <text width="147" height="20" x="900" y="582" style="fill:black;" font-family="Arial" font-size="16px">authority</text>
   <rect width="147" height="20" x="567" y="50" style="fill:#007;stroke:black;"/>
   <text width="147" height="20" x="572" y="64" style="fill:#fff;" font-family="Arial" font-size="16px"> uyeler</text>
   <rect width="147" height="20" x="567" y="70" style="fill:#aea;stroke:black;"/>
   <text width="147" height="20" x="572" y="84" style="fill:black;" font-family="Arial" font-size="16px">uye_id</text>
   <rect width="147" height="20" x="567" y="90" style="fill:none;stroke:black;"/>
   <text width="147" height="20" x="572" y="104" style="fill:black;" font-family="Arial" font-size="16px">uye_adi</text>
   <rect width="147" height="20" x="567" y="110" style="fill:none;stroke:black;"/>
   <text width="147" height="20" x="572" y="124" style="fill:black;" font-family="Arial" font-size="16px">uye_soyadi</text>
   <rect width="147" height="20" x="567" y="130" style="fill:none;stroke:black;"/>
   <text width="147" height="20" x="572" y="144" style="fill:black;" font-family="Arial" font-size="16px">username</text>
   <rect width="147" height="20" x="567" y="150" style="fill:none;stroke:black;"/>
   <text width="147" height="20" x="572" y="164" style="fill:black;" font-family="Arial" font-size="16px">username2</text>
   <rect width="147" height="20" x="567" y="170" style="fill:none;stroke:black;"/>
   <text width="147" height="20" x="572" y="184" style="fill:black;" font-family="Arial" font-size="16px">password</text>
   <rect width="147" height="20" x="567" y="190" style="fill:none;stroke:black;"/>
   <text width="147" height="20" x="572" y="204" style="fill:black;" font-family="Arial" font-size="16px">telefon</text>
   <rect width="147" height="20" x="567" y="210" style="fill:none;stroke:black;"/>
   <text width="147" height="20" x="572" y="224" style="fill:black;" font-family="Arial" font-size="16px">uye_rolu</text>
   <rect width="147" height="20" x="567" y="230" style="fill:none;stroke:black;"/>
   <text width="147" height="20" x="572" y="244" style="fill:black;" font-family="Arial" font-size="16px">kayit_tarihi</text>
   <rect width="147" height="20" x="567" y="250" style="fill:none;stroke:black;"/>
   <text width="147" height="20" x="572" y="264" style="fill:black;" font-family="Arial" font-size="16px">profil_resmi</text>
   <rect width="147" height="20" x="567" y="270" style="fill:none;stroke:black;"/>
   <text width="147" height="20" x="572" y="284" style="fill:black;" font-family="Arial" font-size="16px">aktif</text>
   <rect width="147" height="20" x="36" y="154" style="fill:#007;stroke:black;"/>
   <text width="147" height="20" x="41" y="168" style="fill:#fff;" font-family="Arial" font-size="16px"> yorumlar</text>
   <rect width="147" height="20" x="36" y="174" style="fill:#aea;stroke:black;"/>
   <text width="147" height="20" x="41" y="188" style="fill:black;" font-family="Arial" font-size="16px">yourum_id</text>
   <rect width="147" height="20" x="36" y="194" style="fill:none;stroke:black;"/>
   <text width="147" height="20" x="41" y="208" style="fill:black;" font-family="Arial" font-size="16px">not_id</text>
   <rect width="147" height="20" x="36" y="214" style="fill:none;stroke:black;"/>
   <text width="147" height="20" x="41" y="228" style="fill:black;" font-family="Arial" font-size="16px">yorum_icerigi</text>
   <rect width="147" height="20" x="36" y="234" style="fill:none;stroke:black;"/>
   <text width="147" height="20" x="41" y="248" style="fill:black;" font-family="Arial" font-size="16px">yorum_tarihi</text>
   <rect width="147" height="20" x="36" y="254" style="fill:none;stroke:black;"/>
   <text width="147" height="20" x="41" y="268" style="fill:black;" font-family="Arial" font-size="16px">yorumlayan</text>
</svg>
